<svg width="39" height="39" viewBox="0 0 39 39" fill="none" xmlns="http://www.w3.org/2000/svg">
<path d="M20.9142 25.3096L26.8303 19.2269M26.8303 19.2269L20.7476 13.3108M26.8303 19.2269L11.8318 19.4352M1.33278 19.5811C1.29995 17.2175 1.73297 14.8706 2.60713 12.6744C3.48129 10.4782 4.77948 8.47568 6.42755 6.78117C8.07563 5.08666 10.0413 3.73335 12.2124 2.79852C14.3835 1.86368 16.7174 1.36563 19.081 1.3328C21.4446 1.29996 23.7915 1.73298 25.9877 2.60715C28.1839 3.48131 30.1864 4.77949 31.8809 6.42756C33.5754 8.07564 34.9288 10.0413 35.8636 12.2124C36.7984 14.3835 37.2965 16.7175 37.3293 19.081C37.3956 23.8545 35.563 28.4587 32.2345 31.8809C28.9061 35.3032 24.3545 37.263 19.5811 37.3293C14.8076 37.3956 10.2034 35.563 6.78116 32.2346C3.35894 28.9061 1.3991 24.3545 1.33278 19.5811Z" stroke="black" stroke-width="1.5" stroke-linecap="round" stroke-linejoin="round"/>
</svg>
