<svg width="12" height="12" viewBox="0 0 12 12" fill="none" xmlns="http://www.w3.org/2000/svg">
<path d="M6 2.5C7.12717 2.5 8.20817 2.94777 9.0052 3.7448C9.80223 4.54183 10.25 5.62283 10.25 6.75C10.25 7.87717 9.80223 8.95817 9.0052 9.7552C8.20817 10.5522 7.12717 11 6 11C4.87283 11 3.79183 10.5522 2.9948 9.7552C2.19777 8.95817 1.75 7.87717 1.75 6.75C1.75 5.62283 2.19777 4.54183 2.9948 3.7448C3.79183 2.94777 4.87283 2.5 6 2.5ZM6 3.25C5.07174 3.25 4.1815 3.61875 3.52513 4.27513C2.86875 4.9315 2.5 5.82174 2.5 6.75C2.5 7.67826 2.86875 8.5685 3.52513 9.22487C4.1815 9.88125 5.07174 10.25 6 10.25C6.92826 10.25 7.8185 9.88125 8.47487 9.22487C9.13125 8.5685 9.5 7.67826 9.5 6.75C9.5 5.82174 9.13125 4.9315 8.47487 4.27513C7.8185 3.61875 6.92826 3.25 6 3.25ZM6 4C6.09062 4 6.17817 4.03282 6.24647 4.09238C6.31476 4.15195 6.35918 4.23422 6.3715 4.324L6.375 4.375V6.625C6.37497 6.72001 6.33888 6.81147 6.27401 6.8809C6.20915 6.95032 6.12035 6.99254 6.02556 6.99901C5.93077 7.00549 5.83705 6.97574 5.76335 6.91578C5.68965 6.85583 5.64145 6.77012 5.6285 6.676L5.625 6.625V4.375C5.625 4.27554 5.66451 4.18016 5.73484 4.10984C5.80516 4.03951 5.90054 4 6 4ZM9.5735 2.557L9.615 2.587L10.194 3.069C10.2665 3.12997 10.3132 3.21613 10.3248 3.31014C10.3364 3.40416 10.312 3.49908 10.2564 3.57583C10.2009 3.65257 10.1184 3.70546 10.0255 3.72386C9.93253 3.74225 9.83608 3.7248 9.7555 3.675L9.7145 3.645L9.135 3.163C9.0625 3.10203 9.01577 3.01587 9.00418 2.92186C8.9926 2.82784 9.01703 2.73292 9.07256 2.65617C9.1281 2.57943 9.21062 2.52654 9.30354 2.50815C9.39647 2.48975 9.49291 2.5072 9.5735 2.557ZM7.125 1.25C7.22001 1.25003 7.31147 1.28612 7.3809 1.35099C7.45032 1.41585 7.49254 1.50465 7.49901 1.59944C7.50549 1.69423 7.47574 1.78795 7.41578 1.86165C7.35583 1.93535 7.27012 1.98355 7.176 1.9965L7.125 2H4.875C4.77999 1.99997 4.68853 1.96388 4.6191 1.89901C4.54968 1.83415 4.50746 1.74535 4.50099 1.65056C4.49451 1.55577 4.52426 1.46205 4.58422 1.38835C4.64417 1.31465 4.72987 1.26645 4.824 1.2535L4.875 1.25H7.125Z" fill="#111223"/>
</svg>
