<svg width="12" height="12" viewBox="0 0 12 12" fill="none" xmlns="http://www.w3.org/2000/svg">
<g clip-path="url(#clip0_260_40)">
<path d="M0.499966 10.5H8.00497V10.99C8.00497 11.27 7.77997 11.495 7.49997 11.495H1.00497C0.724966 11.495 0.499966 11.27 0.499966 10.99V10.5ZM10.245 11.655L7.99997 9.415V9.5H0.499966V8.5H7.08497L6.08497 7.5H0.499966C0.499966 5.88 1.72997 4.915 3.18997 4.605L0.339966 1.755L1.04997 1.05L6.49997 6.5L7.49997 7.5L10.95 10.95L10.245 11.655ZM5.08497 6.5L4.08497 5.5C3.37497 5.53 2.32497 5.78 1.80997 6.5H5.08497ZM11.5 2.5H8.99997V0.5H7.99997V2.5H5.49997L5.61497 3.5H10.395L9.89497 8.485L10.81 9.4L11.5 2.5Z" fill="#111223"/>
</g>
<defs>
<clipPath id="clip0_260_40">
<rect width="12" height="12" fill="white"/>
</clipPath>
</defs>
</svg>
