<svg width="20" height="20" viewBox="0 0 20 20" fill="none" xmlns="http://www.w3.org/2000/svg">
<path d="M15.982 16.725C15.2833 15.7999 14.3792 15.0496 13.3412 14.5334C12.3031 14.0171 11.1594 13.7489 10 13.75C8.84064 13.7489 7.69688 14.0171 6.65882 14.5334C5.62075 15.0496 4.71674 15.7999 4.018 16.725M15.981 16.725C17.3445 15.5122 18.3071 13.9135 18.7412 12.1411C19.1752 10.3686 19.0603 8.50608 18.4115 6.80047C17.7627 5.09486 16.6107 3.62677 15.1084 2.59089C13.6061 1.55501 11.8243 1.00029 9.9995 1.00029C8.17466 1.00029 6.39293 1.55501 4.8906 2.59089C3.38827 3.62677 2.23633 5.09486 1.58753 6.80047C0.938738 8.50608 0.823749 10.3686 1.25782 12.1411C1.69188 13.9135 2.6545 15.5122 4.018 16.725M15.981 16.725C14.335 18.1932 12.2056 19.0031 10 19C7.79403 19.0034 5.66423 18.1934 4.018 16.725M13 7.75C13 8.54564 12.6839 9.30871 12.1213 9.87132C11.5587 10.4339 10.7956 10.75 10 10.75C9.20435 10.75 8.44129 10.4339 7.87868 9.87132C7.31607 9.30871 7 8.54564 7 7.75C7 6.95435 7.31607 6.19128 7.87868 5.62867C8.44129 5.06607 9.20435 4.74999 10 4.74999C10.7956 4.74999 11.5587 5.06607 12.1213 5.62867C12.6839 6.19128 13 6.95435 13 7.75V7.75Z" stroke="black" stroke-width="1.5" stroke-linecap="round" stroke-linejoin="round"/>
</svg>
